<svg xmlns="http://www.w3.org/2000/svg" xmlns:xlink="http://www.w3.org/1999/xlink" width="1080" zoomAndPan="magnify" viewBox="0 0 810 599.999999" height="800" preserveAspectRatio="xMidYMid meet" version="1.0"><defs><g/><clipPath id="0fe74576dc"><path d="M 0 473 L 39 473 L 39 558 L 0 558 Z M 0 473 " clip-rule="nonzero"/></clipPath><clipPath id="3c1351f843"><rect x="0" width="810" y="0" height="570"/></clipPath></defs><g transform="matrix(1, 0, 0, 1, 0, -0.000000000000034788)"><g clip-path="url(#3c1351f843)"><g fill="#ffffff" fill-opacity="1"><g transform="translate(50.744337, 52.712331)"><g/></g></g><g fill="#ffffff" fill-opacity="1"><g transform="translate(109.33268, 52.712331)"><g/></g></g><g fill="#ffffff" fill-opacity="1"><g transform="translate(167.921023, 52.712331)"><g/></g></g><g fill="#67b0ef" fill-opacity="1"><g transform="translate(226.52517, 52.712331)"><g><path d="M 5.328125 2.21875 L 47.9375 2.21875 L 47.9375 8.875 L 5.328125 8.875 Z M 5.328125 2.21875 "/></g></g></g><g fill="#ffffff" fill-opacity="1"><g transform="translate(285.136803, 52.712331)"><g/></g></g><g fill="#ffffff" fill-opacity="1"><g transform="translate(343.725146, 52.712331)"><g/></g></g><g fill="#ffffff" fill-opacity="1"><g transform="translate(402.313489, 52.712331)"><g/></g></g><g fill="#ffffff" fill-opacity="1"><g transform="translate(460.901832, 52.712331)"><g/></g></g><g fill="#67b0ef" fill-opacity="1"><g transform="translate(519.505971, 52.712331)"><g><path d="M 5.328125 2.21875 L 47.9375 2.21875 L 47.9375 8.875 L 5.328125 8.875 Z M 5.328125 2.21875 "/></g></g></g><g fill="#ffffff" fill-opacity="1"><g transform="translate(578.117596, 52.712331)"><g/></g></g><g fill="#ffffff" fill-opacity="1"><g transform="translate(636.705938, 52.712331)"><g/></g></g><g fill="#67b0ef" fill-opacity="1"><g transform="translate(695.315079, 52.712331)"><g><path d="M 5.328125 2.21875 L 47.9375 2.21875 L 47.9375 8.875 L 5.328125 8.875 Z M 5.328125 2.21875 "/></g></g></g><g fill="#67b0ef" fill-opacity="1"><g transform="translate(753.903422, 52.712331)"><g><path d="M 5.328125 2.21875 L 47.9375 2.21875 L 47.9375 8.875 L 5.328125 8.875 Z M 5.328125 2.21875 "/></g></g></g><g fill="#ffffff" fill-opacity="1"><g transform="translate(50.692788, 176.430801)"><g/></g></g><g fill="#ffffff" fill-opacity="1"><g transform="translate(109.281131, 176.430801)"><g/></g></g><g fill="#549ce3" fill-opacity="1"><g transform="translate(167.88777, 176.430801)"><g><path d="M 38.171875 -73.6875 L 46.609375 -73.6875 L 15.09375 9.765625 L 6.65625 9.765625 Z M 38.171875 -73.6875 "/></g></g></g><g fill="#ffffff" fill-opacity="1"><g transform="translate(226.499395, 176.430801)"><g/></g></g><g fill="#549ce3" fill-opacity="1"><g transform="translate(285.11102, 176.430801)"><g><path d="M 46.609375 9.765625 L 38.171875 9.765625 L 6.65625 -73.6875 L 15.09375 -73.6875 Z M 46.609375 9.765625 "/></g></g></g><g fill="#ffffff" fill-opacity="1"><g transform="translate(343.722645, 176.430801)"><g/></g></g><g fill="#ffffff" fill-opacity="1"><g transform="translate(402.310988, 176.430801)"><g/></g></g><g fill="#2a62a3" fill-opacity="1"><g transform="translate(460.920129, 176.430801)"><g><path d="M 22.640625 -73.6875 L 30.625 -73.6875 L 30.625 9.765625 L 22.640625 9.765625 Z M 22.640625 -73.6875 "/></g></g></g><g fill="#ffffff" fill-opacity="1"><g transform="translate(519.531754, 176.430801)"><g/></g></g><g fill="#2a62a3" fill-opacity="1"><g transform="translate(578.143379, 176.430801)"><g><path d="M 22.640625 -73.6875 L 30.625 -73.6875 L 30.625 9.765625 L 22.640625 9.765625 Z M 22.640625 -73.6875 "/></g></g></g><g fill="#549ce3" fill-opacity="1"><g transform="translate(636.755003, 176.430801)"><g><path d="M 38.171875 -73.6875 L 46.609375 -73.6875 L 15.09375 9.765625 L 6.65625 9.765625 Z M 38.171875 -73.6875 "/></g></g></g><g fill="#ffffff" fill-opacity="1"><g transform="translate(695.366628, 176.430801)"><g/></g></g><g fill="#549ce3" fill-opacity="1"><g transform="translate(753.978253, 176.430801)"><g><path d="M 38.171875 -73.6875 L 46.609375 -73.6875 L 15.09375 9.765625 L 6.65625 9.765625 Z M 38.171875 -73.6875 "/></g></g></g><g fill="#ffffff" fill-opacity="1"><g transform="translate(50.667013, 300.14927)"><g/></g></g><g fill="#549ce3" fill-opacity="1"><g transform="translate(109.276145, 300.14927)"><g><path d="M 38.171875 -73.6875 L 46.609375 -73.6875 L 15.09375 9.765625 L 6.65625 9.765625 Z M 38.171875 -73.6875 "/></g></g></g><g fill="#ffffff" fill-opacity="1"><g transform="translate(167.88777, 300.14927)"><g/></g></g><g fill="#67b0ef" fill-opacity="1"><g transform="translate(226.499395, 300.14927)"><g><path d="M 5.328125 2.21875 L 47.9375 2.21875 L 47.9375 8.875 L 5.328125 8.875 Z M 5.328125 2.21875 "/></g></g></g><g fill="#ffffff" fill-opacity="1"><g transform="translate(285.11102, 300.14927)"><g/></g></g><g fill="#549ce3" fill-opacity="1"><g transform="translate(343.722645, 300.14927)"><g><path d="M 46.609375 9.765625 L 38.171875 9.765625 L 6.65625 -73.6875 L 15.09375 -73.6875 Z M 46.609375 9.765625 "/></g></g></g><g fill="#ffffff" fill-opacity="1"><g transform="translate(402.33427, 300.14927)"><g/></g></g><g fill="#2a62a3" fill-opacity="1"><g transform="translate(460.945895, 300.14927)"><g><path d="M 22.640625 -73.6875 L 30.625 -73.6875 L 30.625 9.765625 L 22.640625 9.765625 Z M 22.640625 -73.6875 "/></g></g></g><g fill="#ffffff" fill-opacity="1"><g transform="translate(519.55752, 300.14927)"><g/></g></g><g fill="#67b0ef" fill-opacity="1"><g transform="translate(578.169145, 300.14927)"><g><path d="M 21.84375 -64.8125 L 30.453125 -64.8125 L 30.453125 -51.5 L 29.46875 -38.171875 L 22.90625 -38.171875 L 21.84375 -51.5 Z M 21.84375 -64.8125 "/></g></g></g><g fill="#ffffff" fill-opacity="1"><g transform="translate(636.78077, 300.14927)"><g/></g></g><g fill="#549ce3" fill-opacity="1"><g transform="translate(695.392395, 300.14927)"><g><path d="M 38.171875 -73.6875 L 46.609375 -73.6875 L 15.09375 9.765625 L 6.65625 9.765625 Z M 38.171875 -73.6875 "/></g></g></g><g fill="#ffffff" fill-opacity="1"><g transform="translate(754.00402, 300.14927)"><g/></g></g><g fill="#549ce3" fill-opacity="1"><g transform="translate(50.690295, 423.86774)"><g><path d="M 38.171875 -73.6875 L 46.609375 -73.6875 L 15.09375 9.765625 L 6.65625 9.765625 Z M 38.171875 -73.6875 "/></g></g></g><g fill="#ffffff" fill-opacity="1"><g transform="translate(109.30192, 423.86774)"><g/></g></g><g fill="#67b0ef" fill-opacity="1"><g transform="translate(167.913545, 423.86774)"><g><path d="M 5.328125 2.21875 L 47.9375 2.21875 L 47.9375 8.875 L 5.328125 8.875 Z M 5.328125 2.21875 "/></g></g></g><g fill="#67b0ef" fill-opacity="1"><g transform="translate(226.501888, 423.86774)"><g><path d="M 5.328125 2.21875 L 47.9375 2.21875 L 47.9375 8.875 L 5.328125 8.875 Z M 5.328125 2.21875 "/></g></g></g><g fill="#67b0ef" fill-opacity="1"><g transform="translate(285.090231, 423.86774)"><g><path d="M 5.328125 2.21875 L 47.9375 2.21875 L 47.9375 8.875 L 5.328125 8.875 Z M 5.328125 2.21875 "/></g></g></g><g fill="#ffffff" fill-opacity="1"><g transform="translate(343.696879, 423.86774)"><g/></g></g><g fill="#549ce3" fill-opacity="1"><g transform="translate(402.308504, 423.86774)"><g><path d="M 46.609375 9.765625 L 38.171875 9.765625 L 6.65625 -73.6875 L 15.09375 -73.6875 Z M 46.609375 9.765625 "/></g></g></g><g fill="#2a62a3" fill-opacity="1"><g transform="translate(460.920129, 423.86774)"><g><path d="M 22.640625 -73.6875 L 30.625 -73.6875 L 30.625 9.765625 L 22.640625 9.765625 Z M 22.640625 -73.6875 "/></g></g></g><g fill="#ffffff" fill-opacity="1"><g transform="translate(519.531754, 423.86774)"><g/></g></g><g fill="#67b0ef" fill-opacity="1"><g transform="translate(578.143379, 423.86774)"><g><path d="M 19 -7.015625 C 19 -9.316406 19.691406 -11.164062 21.078125 -12.5625 C 22.472656 -13.957031 24.328125 -14.65625 26.640625 -14.65625 C 28.941406 -14.65625 30.785156 -13.957031 32.171875 -12.5625 C 33.566406 -11.164062 34.265625 -9.316406 34.265625 -7.015625 C 34.265625 -4.648438 33.566406 -2.738281 32.171875 -1.28125 C 30.785156 0.164062 28.941406 0.890625 26.640625 0.890625 C 24.328125 0.890625 22.472656 0.164062 21.078125 -1.28125 C 19.691406 -2.738281 19 -4.648438 19 -7.015625 Z M 19 -7.015625 "/></g></g></g><g fill="#ffffff" fill-opacity="1"><g transform="translate(636.755003, 423.86774)"><g/></g></g><g fill="#549ce3" fill-opacity="1"><g transform="translate(695.366628, 423.86774)"><g><path d="M 46.609375 9.765625 L 38.171875 9.765625 L 6.65625 -73.6875 L 15.09375 -73.6875 Z M 46.609375 9.765625 "/></g></g></g><g fill="#ffffff" fill-opacity="1"><g transform="translate(753.978253, 423.86774)"><g/></g></g><g clip-path="url(#0fe74576dc)"><g fill="#549ce3" fill-opacity="1"><g transform="translate(-7.92133, 547.586209)"><g><path d="M 38.171875 -73.6875 L 46.609375 -73.6875 L 15.09375 9.765625 L 6.65625 9.765625 Z M 38.171875 -73.6875 "/></g></g></g></g><g fill="#67b0ef" fill-opacity="1"><g transform="translate(50.690295, 547.586209)"><g><path d="M 5.328125 2.21875 L 47.9375 2.21875 L 47.9375 8.875 L 5.328125 8.875 Z M 5.328125 2.21875 "/></g></g></g><g fill="#549ce3" fill-opacity="1"><g transform="translate(109.30192, 547.586209)"><g><path d="M 38.171875 -73.6875 L 46.609375 -73.6875 L 15.09375 9.765625 L 6.65625 9.765625 Z M 38.171875 -73.6875 "/></g></g></g><g fill="#ffffff" fill-opacity="1"><g transform="translate(167.913545, 547.586209)"><g/></g></g><g fill="#ffffff" fill-opacity="1"><g transform="translate(226.52517, 547.586209)"><g/></g></g><g fill="#ffffff" fill-opacity="1"><g transform="translate(285.113513, 547.586209)"><g/></g></g><g fill="#549ce3" fill-opacity="1"><g transform="translate(343.722645, 547.586209)"><g><path d="M 46.609375 9.765625 L 38.171875 9.765625 L 6.65625 -73.6875 L 15.09375 -73.6875 Z M 46.609375 9.765625 "/></g></g></g><g fill="#67b0ef" fill-opacity="1"><g transform="translate(402.33427, 547.586209)"><g><path d="M 5.328125 2.21875 L 47.9375 2.21875 L 47.9375 8.875 L 5.328125 8.875 Z M 5.328125 2.21875 "/></g></g></g><g fill="#549ce3" fill-opacity="1"><g transform="translate(460.945895, 547.586209)"><g><path d="M 46.609375 9.765625 L 38.171875 9.765625 L 6.65625 -73.6875 L 15.09375 -73.6875 Z M 46.609375 9.765625 "/></g></g></g><g fill="#67b0ef" fill-opacity="1"><g transform="translate(519.55752, 547.586209)"><g><path d="M 5.328125 2.21875 L 47.9375 2.21875 L 47.9375 8.875 L 5.328125 8.875 Z M 5.328125 2.21875 "/></g></g></g><g fill="#2a62a3" fill-opacity="1"><g transform="translate(578.169145, 547.586209)"><g><path d="M 22.640625 -73.6875 L 30.625 -73.6875 L 30.625 9.765625 L 22.640625 9.765625 Z M 22.640625 -73.6875 "/></g></g></g><g fill="#549ce3" fill-opacity="1"><g transform="translate(636.78077, 547.586209)"><g><path d="M 46.609375 9.765625 L 38.171875 9.765625 L 6.65625 -73.6875 L 15.09375 -73.6875 Z M 46.609375 9.765625 "/></g></g></g><g fill="#67b0ef" fill-opacity="1"><g transform="translate(695.392395, 547.586209)"><g><path d="M 5.328125 2.21875 L 47.9375 2.21875 L 47.9375 8.875 L 5.328125 8.875 Z M 5.328125 2.21875 "/></g></g></g><g fill="#549ce3" fill-opacity="1"><g transform="translate(754.00402, 547.586209)"><g><path d="M 46.609375 9.765625 L 38.171875 9.765625 L 6.65625 -73.6875 L 15.09375 -73.6875 Z M 46.609375 9.765625 "/></g></g></g></g></g></svg>