<svg xmlns="http://www.w3.org/2000/svg" width="1080" height="800" viewBox="0 0 810 600">
  <defs>
    <clipPath id="b">
      <path d="M0 473h39v85H0Zm0 0"/>
    </clipPath>
    <clipPath id="a">
      <path d="M0 0h810v570H0z"/>
    </clipPath>
  </defs>
  <g clip-path="url(#a)">
    <path fill="#67b0ef" d="M231.85 54.93h42.61v6.66h-42.6ZM524.83 54.93h42.61v6.66h-42.6ZM700.64 54.93h42.61v6.66h-42.6ZM759.23 54.93h42.61v6.66h-42.6Zm0 0"/>
    <path fill="#549ce3" d="M206.06 102.74h8.44l-31.52 83.46h-8.44ZM331.72 186.2h-8.44l-31.51-83.46h8.43Zm0 0"/>
    <path fill="#2a62a3" d="M483.56 102.74h7.99v83.46h-7.99ZM600.78 102.74h7.99v83.46h-7.99Zm0 0"/>
    <path fill="#549ce3" d="M674.93 102.74h8.43l-31.51 83.46h-8.44ZM792.15 102.74h8.44l-31.52 83.46h-8.44ZM147.45 226.46h8.44l-31.52 83.45h-8.44Zm0 0"/>
    <path fill="#67b0ef" d="M231.83 302.37h42.6v6.65h-42.6Zm0 0"/>
    <path fill="#549ce3" d="M390.33 309.91h-8.44l-31.51-83.45h8.44Zm0 0"/>
    <path fill="#2a62a3" d="M483.59 226.46h7.98v83.45h-7.98Zm0 0"/>
    <path fill="#67b0ef" d="M600.01 235.34h8.61v13.3l-.98 13.34h-6.56L600 248.65Zm0 0"/>
    <path fill="#549ce3" d="M733.56 226.46H742l-31.51 83.45h-8.44ZM88.86 350.18h8.44l-31.52 83.45h-8.43Zm0 0"/>
    <path fill="#67b0ef" d="M173.24 426.09h42.61v6.65h-42.6ZM231.83 426.09h42.6v6.65h-42.6ZM290.42 426.09h42.6v6.65h-42.6Zm0 0"/>
    <path fill="#549ce3" d="M448.92 433.63h-8.44l-31.52-83.45h8.44Zm0 0"/>
    <path fill="#2a62a3" d="M483.56 350.18h7.99v83.45h-7.99Zm0 0"/>
    <path fill="#67b0ef" d="M597.14 416.85q0-3.45 2.08-5.54 2.1-2.1 5.56-2.1t5.54 2.1a7.5 7.5 0 0 1 2.09 5.54q0 3.55-2.1 5.74a7.3 7.3 0 0 1-5.53 2.17 7.4 7.4 0 0 1-5.56-2.17q-2.08-2.19-2.08-5.74m0 0"/>
    <path fill="#549ce3" d="M741.98 433.63h-8.44l-31.52-83.45h8.44Zm0 0"/>
    <g clip-path="url(#b)">
      <path fill="#549ce3" d="M30.25 473.9h8.44L7.17 557.35h-8.44Zm0 0"/>
    </g>
    <path fill="#67b0ef" d="M56.02 549.8h42.6v6.66h-42.6Zm0 0"/>
    <path fill="#549ce3" d="M147.47 473.9h8.44l-31.51 83.45h-8.44ZM390.33 557.35h-8.44l-31.51-83.45h8.44Zm0 0"/>
    <path fill="#67b0ef" d="M407.66 549.8h42.61v6.66h-42.6Zm0 0"/>
    <path fill="#549ce3" d="M507.56 557.35h-8.44L467.6 473.9h8.44Zm0 0"/>
    <path fill="#67b0ef" d="M524.89 549.8h42.6v6.66h-42.6Zm0 0"/>
    <path fill="#2a62a3" d="M600.81 473.9h7.98v83.45h-7.98Zm0 0"/>
    <path fill="#549ce3" d="M683.39 557.35h-8.44l-31.51-83.45h8.43Zm0 0"/>
    <path fill="#67b0ef" d="M700.72 549.8h42.61v6.66h-42.6Zm0 0"/>
    <path fill="#549ce3" d="M800.61 557.35h-8.43l-31.52-83.45h8.44Zm0 0"/>
  </g>
</svg>
